<svg xmlns="http://www.w3.org/2000/svg" width="1277.5" height="725.513" viewBox="0 0 1277.5 725.513"><defs><style>.a{fill:rgba(0,0,0,0);}.a,.b,.c,.d,.e{stroke:#707070;}.b{fill:none;}.c{fill:#2063d5;}.d{fill:#26d332;}.e{fill:#f8f24e;}</style></defs><g transform="translate(-358.5 -167.487)"><path class="a" d="M-1.5.5V725.1" transform="translate(360.5 167.5)"/><line class="b" x2="1264" transform="translate(371.5 889.5)"/><line class="a" x2="1" y2="722" transform="translate(1634.5 167.5)"/><path class="c" d="M376.436,250.2l517.1,172.6,317.092-227.2,138.22,203.2,304.083-196v684H376.436Z" transform="translate(-17.436)"/><path class="d" d="M371.5,540,651.826,422.8l244.589,104,204.094-121.6,312.621,75.2L1648,371.8V882H371.5Z" transform="translate(-12.5)"/><path class="e" d="M371.5,737.163C613.048,588.563,696.789,531.91,696.789,531.91l230.968,129L1167,478.993l253.687,52.917L1647.5,391.6l-.8,497.3-1275.2.6Z" transform="translate(-12.5 3)"/><line class="b" x2="5" y2="190" transform="translate(685.5 167.5)"/><path class="b" d="M0,0V164.5" transform="translate(1286.5 167.5)"/><line class="b" x2="1" y2="168" transform="translate(1002.5 167.5)"/></g></svg>